<svg xmlns="http://www.w3.org/2000/svg" viewBox="0 0 32 32" fill="none">
  <!-- Background -->
  <rect width="32" height="32" rx="6" fill="url(#gradient)"/>
  
  <!-- Truck/Cargo Icon -->
  <rect x="4" y="16" width="6" height="8" rx="1" fill="white"/>
  <rect x="12" y="14" width="10" height="10" rx="1" fill="white"/>
  <rect x="24" y="16" width="4" height="8" rx="1" fill="white"/>
  
  <!-- Wheels -->
  <circle cx="7" cy="26" r="2" fill="#1d4ed8"/>
  <circle cx="25" cy="26" r="2" fill="#1d4ed8"/>
  
  <!-- CargoLink "C" -->
  <path d="M16 6c-3 0-5.5 2.5-5.5 5.5S13 17 16 17c1.5 0 2.8-.6 3.8-1.6l1.2 1.2c-1.3 1.3-3.1 2.1-5 2.1-4 0-7.2-3.2-7.2-7.2S12 4.3 16 4.3c1.9 0 3.7.8 5 2.1l-1.2 1.2C18.8 6.6 17.5 6 16 6z" fill="white"/>
  
  <!-- Gradient Definition -->
  <defs>
    <linearGradient id="gradient" x1="0%" y1="0%" x2="100%" y2="100%">
      <stop offset="0%" style="stop-color:#2563eb;stop-opacity:1" />
      <stop offset="100%" style="stop-color:#1d4ed8;stop-opacity:1" />
    </linearGradient>
  </defs>
</svg>