<svg xmlns="http://www.w3.org/2000/svg" viewBox="0 0 32 32" fill="none">
  <!-- Background -->
  <rect width="32" height="32" rx="6" fill="url(#gradient)"/>
  
  <!-- Truck/Cargo Icon -->
  <path d="M6 18h4v4H6v-4z" fill="white"/>
  <path d="M12 16h8v6h-8v-6z" fill="white"/>
  <path d="M22 18h4v4h-4v-4z" fill="white"/>
  <circle cx="8" cy="24" r="2" fill="white"/>
  <circle cx="24" cy="24" r="2" fill="white"/>
  
  <!-- Letter "C" for CargoLink -->
  <path d="M16 8c-2.2 0-4 1.8-4 4s1.8 4 4 4c1.1 0 2.1-.4 2.8-1.2l1.4 1.4c-1.1 1.1-2.6 1.8-4.2 1.8-3.3 0-6-2.7-6-6s2.7-6 6-6c1.6 0 3.1.7 4.2 1.8l-1.4 1.4C18.1 8.4 17.1 8 16 8z" fill="white"/>
  
  <!-- Gradient Definition -->
  <defs>
    <linearGradient id="gradient" x1="0%" y1="0%" x2="100%" y2="100%">
      <stop offset="0%" style="stop-color:#2563eb;stop-opacity:1" />
      <stop offset="100%" style="stop-color:#1d4ed8;stop-opacity:1" />
    </linearGradient>
  </defs>
</svg>